<?xml version="1.0" encoding="UTF-8" standalone="no"?>
<!DOCTYPE svg PUBLIC "-//W3C//DTD SVG 1.1//EN" "http://www.w3.org/Graphics/SVG/1.1/DTD/svg11.dtd">
<svg width="100%" height="100%" viewBox="0 0 2423 832" version="1.1" xmlns="http://www.w3.org/2000/svg" xmlns:xlink="http://www.w3.org/1999/xlink" xml:space="preserve" xmlns:serif="http://www.serif.com/" style="fill-rule:evenodd;clip-rule:evenodd;stroke-linejoin:round;stroke-miterlimit:2;">
    <g transform="matrix(4.166667,0,0,4.166667,434.2325,796.66)">
        <path d="M0,-0.09C0,2.395 1.758,4.488 4.396,4.488C6.913,4.488 8.823,2.305 8.823,-0.09C8.823,-2.062 7.458,-4.699 4.669,-4.699C2.001,-4.699 0,-2.607 0,-0.09M8.792,-6.336L8.792,-7.64C8.792,-7.913 8.975,-8.095 9.247,-8.095L12.794,-8.095C13.067,-8.095 13.25,-7.913 13.25,-7.64L13.25,7.519C13.25,7.793 13.067,7.973 12.794,7.973L9.247,7.973C8.975,7.973 8.792,7.793 8.792,7.519L8.792,5.458C7.974,7.035 6.064,8.277 3.214,8.277C-1.789,8.277 -4.548,4.184 -4.548,-0.09C-4.548,-4.244 -1.971,-8.367 3.668,-8.367C6.246,-8.367 7.974,-7.428 8.792,-6.336" style="fill:rgb(158,193,13);fill-rule:nonzero;"/>
    </g>
    <g transform="matrix(4.166667,0,0,4.166667,588.86125,824.45625)">
        <path d="M0,-13.432C0.242,-13.311 0.333,-13.037 0.182,-12.765L-1.273,-10.248C-1.395,-10.067 -1.637,-9.975 -1.85,-10.067C-3.881,-10.946 -5.306,-11.401 -6.852,-11.401C-8.398,-11.401 -9.187,-10.915 -9.187,-10.248L-9.187,-10.218C-9.187,-9.278 -7.034,-8.914 -4.639,-8.338C-1.516,-7.52 1,-6.064 1,-3.639C1,0.06 -1.577,1.606 -6.458,1.606C-9.429,1.606 -10.945,0.939 -13.644,-0.637C-13.886,-0.788 -13.977,-1.092 -13.795,-1.334L-12.37,-3.305C-12.219,-3.487 -11.976,-3.517 -11.794,-3.426C-9.551,-2.213 -7.914,-1.729 -5.882,-1.729C-4.063,-1.729 -3.244,-2.244 -3.244,-3.002L-3.244,-3.033C-3.244,-4.306 -5.791,-4.973 -8.247,-5.519C-11.37,-6.216 -13.401,-7.337 -13.401,-10.309L-13.401,-10.4C-13.401,-12.735 -11.249,-15.038 -6.731,-15.038C-4.063,-15.038 -2.213,-14.493 0,-13.432" style="fill:rgb(158,193,13);fill-rule:nonzero;"/>
    </g>
    <g transform="matrix(4.166667,0,0,4.166667,644.954583,801.719167)">
        <path d="M0,-2.517L8.247,-2.517C8.247,-4.397 6.549,-5.913 3.881,-5.913C1.698,-5.913 0,-3.943 0,-2.517M11.946,-1.578C11.946,-0.82 11.916,-0.092 11.733,0.242C11.643,0.363 11.521,0.423 11.4,0.423L0.061,0.423C0.061,1.879 2.304,3.637 4.124,3.637C5.488,3.637 6.852,3.728 9.126,1.879C9.369,1.697 9.521,1.757 9.702,1.91L11.127,3.244C11.339,3.456 11.309,3.698 11.158,3.941C9.611,6.154 7.307,7.063 4.033,7.063C-1.304,7.063 -4.275,2.819 -4.275,-1.153L-4.275,-1.244C-4.275,-5.701 -1.607,-9.58 3.851,-9.58C9.217,-9.58 11.946,-6.277 11.946,-1.578" style="fill:rgb(158,193,13);fill-rule:nonzero;"/>
    </g>
    <g transform="matrix(4.166667,0,0,4.166667,789.099167,824.45625)">
        <path d="M0,-13.432C0.243,-13.311 0.333,-13.037 0.182,-12.765L-1.273,-10.248C-1.395,-10.067 -1.637,-9.975 -1.85,-10.067C-3.881,-10.946 -5.306,-11.401 -6.852,-11.401C-8.398,-11.401 -9.187,-10.915 -9.187,-10.248L-9.187,-10.218C-9.187,-9.278 -7.034,-8.914 -4.639,-8.338C-1.516,-7.52 1,-6.064 1,-3.639C1,0.06 -1.577,1.606 -6.458,1.606C-9.429,1.606 -10.945,0.939 -13.644,-0.637C-13.886,-0.788 -13.977,-1.092 -13.795,-1.334L-12.371,-3.305C-12.219,-3.487 -11.976,-3.517 -11.794,-3.426C-9.551,-2.213 -7.914,-1.729 -5.882,-1.729C-4.063,-1.729 -3.244,-2.244 -3.244,-3.002L-3.244,-3.033C-3.244,-4.306 -5.791,-4.973 -8.247,-5.519C-11.37,-6.216 -13.401,-7.337 -13.401,-10.309L-13.401,-10.4C-13.401,-12.735 -11.249,-15.038 -6.731,-15.038C-4.063,-15.038 -2.213,-14.493 0,-13.432" style="fill:rgb(158,193,13);fill-rule:nonzero;"/>
    </g>
    <g transform="matrix(4.166667,0,0,4.166667,879.04875,796.03125)">
        <path d="M0,0.182C0,-2.304 -2.031,-4.336 -4.487,-4.336C-6.973,-4.336 -9.005,-2.304 -9.005,0.182C-9.005,2.638 -6.973,4.669 -4.487,4.669C-2.031,4.669 0,2.638 0,0.182M-12.704,0.152C-12.704,-4.518 -9.126,-8.216 -4.426,-8.216C0.243,-8.216 3.76,-4.548 3.76,0.121C3.76,4.821 0.243,8.398 -4.426,8.398C-9.126,8.398 -12.704,4.851 -12.704,0.152" style="fill:rgb(158,193,13);fill-rule:nonzero;"/>
    </g>
    <g transform="matrix(4.166667,0,0,4.166667,982.137083,814.605417)">
        <path d="M0,-8.976C0,-8.703 -0.151,-8.521 -0.333,-8.521C-7.549,-8.521 -6.852,-3.488 -6.852,-1.608L-6.852,3.212C-6.852,3.486 -7.034,3.668 -7.307,3.668L-10.945,3.668C-11.218,3.668 -11.4,3.486 -11.4,3.212L-11.4,-11.947C-11.4,-12.22 -11.218,-12.402 -10.945,-12.402L-7.307,-12.402C-7.034,-12.402 -6.852,-12.22 -6.852,-11.947L-6.852,-8.491C-5.275,-11.553 -1.91,-12.372 -0.546,-12.583C-0.243,-12.644 0,-12.432 0,-12.098L0,-8.976Z" style="fill:rgb(158,193,13);fill-rule:nonzero;"/>
    </g>
    <g transform="matrix(4.166667,0,0,4.166667,1143.339167,801.719167)">
        <path d="M0,-2.517L8.247,-2.517C8.247,-4.397 6.549,-5.913 3.881,-5.913C1.698,-5.913 0,-3.943 0,-2.517M11.946,-1.578C11.946,-0.82 11.916,-0.092 11.733,0.242C11.643,0.363 11.521,0.423 11.4,0.423L0.061,0.423C0.061,1.879 2.304,3.637 4.124,3.637C5.488,3.637 6.852,3.728 9.126,1.879C9.369,1.697 9.521,1.757 9.702,1.91L11.127,3.244C11.339,3.456 11.309,3.698 11.158,3.941C9.611,6.154 7.307,7.063 4.033,7.063C-1.304,7.063 -4.275,2.819 -4.275,-1.153L-4.275,-1.244C-4.275,-5.701 -1.607,-9.58 3.851,-9.58C9.217,-9.58 11.946,-6.277 11.946,-1.578" style="fill:rgb(158,193,13);fill-rule:nonzero;"/>
    </g>
    <g transform="matrix(4.166667,0,0,4.166667,1250.7225,771.52)">
        <path d="M0,6.095C0,8.581 2.031,10.613 4.548,10.613C7.033,10.613 9.064,8.581 9.064,6.095C9.064,3.578 7.033,1.547 4.548,1.547C2.031,1.547 0,3.578 0,6.095M13.583,13.553C13.583,13.826 13.401,14.008 13.128,14.008L9.581,14.008C9.308,14.008 9.126,13.826 9.126,13.553L9.126,11.522C8.308,12.553 6.396,14.311 3.547,14.311C-6.337,14.311 -7.398,-2.334 4.002,-2.334C6.579,-2.334 8.308,-1.181 9.126,-0.272L9.126,-7.761C9.126,-8.034 9.308,-8.216 9.581,-8.216L13.128,-8.216C13.401,-8.216 13.583,-8.034 13.583,-7.761L13.583,13.553Z" style="fill:rgb(158,193,13);fill-rule:nonzero;"/>
    </g>
    <g transform="matrix(4.166667,0,0,4.166667,1366.445,831.148333)">
        <path d="M0,-16.372C0.271,-16.372 0.454,-16.19 0.454,-15.917C0.484,-12.643 0.484,-8.489 0.484,-8.489C0.484,-5.306 1.788,-3.486 4.608,-3.486C6.67,-3.486 8.004,-4.941 8.822,-6.366L8.822,-15.917C8.822,-16.19 9.005,-16.372 9.277,-16.372L12.824,-16.372C13.098,-16.372 13.279,-16.19 13.279,-15.917L13.279,-0.758C13.279,-0.484 13.098,-0.303 12.824,-0.303L9.277,-0.303C9.005,-0.303 8.822,-0.484 8.822,-0.758L8.822,-2.971C7.822,-1.758 5.882,0 2.092,0C-2.669,0 -4.003,-3.577 -4.003,-8.004L-4.003,-15.917C-4.003,-16.19 -3.82,-16.372 -3.548,-16.372L0,-16.372Z" style="fill:rgb(158,193,13);fill-rule:nonzero;"/>
    </g>
    <g transform="matrix(4.166667,0,0,4.166667,1527.895,821.2975)">
        <path d="M0,-11.916C0.182,-11.733 0.182,-11.431 0,-11.249L-2.365,-8.914C-2.547,-8.732 -2.79,-8.732 -3.002,-8.914C-4.063,-9.823 -5.397,-10.309 -7.034,-10.309C-12.4,-10.309 -13.371,-1.577 -6.822,-1.577C-5.275,-1.577 -3.911,-2.062 -2.729,-2.972C-2.547,-3.123 -2.305,-3.123 -2.153,-2.972L0.091,-0.91C0.303,-0.728 0.303,-0.425 0.091,-0.243C-1.547,1.273 -3.457,2.334 -6.701,2.334C-11.916,2.334 -15.767,-1.364 -15.767,-5.882L-15.767,-5.973C-15.767,-10.46 -11.946,-14.25 -6.609,-14.25C-3.548,-14.25 -1.577,-13.371 0,-11.916" style="fill:rgb(158,193,13);fill-rule:nonzero;"/>
    </g>
    <g transform="matrix(4.166667,0,0,4.166667,1579.69375,796.66)">
        <path d="M0,-0.09C0,2.395 1.759,4.488 4.396,4.488C6.913,4.488 8.823,2.305 8.823,-0.09C8.823,-2.062 7.459,-4.699 4.67,-4.699C2.002,-4.699 0,-2.607 0,-0.09M8.793,-6.336L8.793,-7.64C8.793,-7.913 8.975,-8.095 9.248,-8.095L12.795,-8.095C13.068,-8.095 13.25,-7.913 13.25,-7.64L13.25,7.519C13.25,7.793 13.068,7.973 12.795,7.973L9.248,7.973C8.975,7.973 8.793,7.793 8.793,7.519L8.793,5.458C7.975,7.035 6.064,8.277 3.214,8.277C-1.788,8.277 -4.548,4.184 -4.548,-0.09C-4.548,-4.244 -1.971,-8.367 3.669,-8.367C6.246,-8.367 7.975,-7.428 8.793,-6.336" style="fill:rgb(158,193,13);fill-rule:nonzero;"/>
    </g>
    <g transform="matrix(4.166667,0,0,4.166667,1725.35625,807.024167)">
        <path d="M0,-10.885C0.272,-10.885 0.455,-10.703 0.455,-10.431L0.455,-7.52C0.455,-7.247 0.272,-7.065 0,-7.065L-4.608,-7.065L-4.608,0.181C-4.608,1.394 -3.79,1.94 -2.396,1.94C-1.455,1.94 -0.546,1.758 0.121,1.272C0.303,1.121 0.546,1.121 0.729,1.272L2.365,2.88C2.305,2.819 0.939,5.821 -3.851,5.76C-6.063,5.729 -6.943,5.184 -7.489,4.82C-8.641,3.971 -9.156,2.394 -9.156,0.605L-9.156,-7.065L-11.248,-7.065C-11.521,-7.065 -11.703,-7.247 -11.703,-7.52L-11.703,-10.431C-11.703,-10.703 -11.521,-10.885 -11.248,-10.885L-9.156,-10.885L-9.156,-16.252C-9.156,-16.525 -8.975,-16.706 -8.701,-16.706L-5.003,-16.706C-4.729,-16.706 -4.548,-16.525 -4.548,-16.252L-4.548,-10.885L0,-10.885Z" style="fill:rgb(158,193,13);fill-rule:nonzero;"/>
    </g>
    <g transform="matrix(4.166667,0,0,4.166667,1793.19875,740.824167)">
        <path d="M0,20.92C0,21.193 -0.183,21.375 -0.455,21.375L-4.094,21.375C-4.366,21.375 -4.548,21.193 -4.548,20.92L-4.608,5.761C-4.608,5.487 -4.427,5.306 -4.154,5.306L-0.455,5.306C-0.183,5.306 0,5.487 0,5.761L0,20.92ZM0.151,3.153C0.151,3.426 -0.03,3.608 -0.304,3.608L-4.336,3.608C-4.608,3.608 -4.791,3.426 -4.791,3.153L-4.791,0C-4.791,-0.272 -4.608,-0.455 -4.336,-0.455L-0.304,-0.455C-0.03,-0.455 0.151,-0.272 0.151,0L0.151,3.153Z" style="fill:rgb(158,193,13);fill-rule:nonzero;"/>
    </g>
    <g transform="matrix(4.166667,0,0,4.166667,1878.342917,764.06)">
        <path d="M0,15.526C-0.061,15.708 -0.213,15.797 -0.364,15.797L-5.428,15.797C-5.609,15.797 -5.761,15.708 -5.821,15.526L-11.279,0.426C-11.4,0.063 -11.188,-0.271 -10.794,-0.271L-7.125,-0.271C-6.913,-0.271 -6.762,-0.15 -6.701,0.033L-2.881,12.069L0.729,0.033C0.788,-0.15 0.939,-0.271 1.121,-0.271L4.881,-0.271C5.306,-0.271 5.518,0.093 5.396,0.457L0,15.526Z" style="fill:rgb(158,193,13);fill-rule:nonzero;"/>
    </g>
    <g transform="matrix(4.166667,0,0,4.166667,1985.601667,796.03125)">
        <path d="M0,0.182C0,-2.304 -2.031,-4.336 -4.487,-4.336C-6.975,-4.336 -9.005,-2.304 -9.005,0.182C-9.005,2.638 -6.975,4.669 -4.487,4.669C-2.031,4.669 0,2.638 0,0.182M-12.704,0.152C-12.704,-4.518 -9.126,-8.216 -4.427,-8.216C0.242,-8.216 3.759,-4.548 3.759,0.121C3.759,4.821 0.242,8.398 -4.427,8.398C-9.126,8.398 -12.704,4.851 -12.704,0.152" style="fill:rgb(158,193,13);fill-rule:nonzero;"/>
    </g>
    <g transform="matrix(4.166667,0,0,4.166667,574.829167,365.8)">
        <path d="M0,-34.685C0,-32.728 -0.981,-31.155 -3.138,-31.155L-28.221,-31.155C-29.396,-31.155 -30.77,-31.55 -30.77,-32.728C-30.77,-38.214 -37.82,-57.025 -68.979,-57.025C-90.73,-57.025 -106.019,-38.214 -106.019,-15.871C-106.019,4.705 -91.125,24.302 -68.979,24.302C-34.49,24.302 -30.177,0.98 -30.177,-2.94C-30.177,-4.506 -28.808,-5.68 -27.239,-5.68L-2.351,-5.68C-0.59,-5.68 0.784,-4.311 0.587,-2.549C-0.196,9.996 -7.642,53.107 -68.786,53.107C-110.719,53.107 -137.959,23.712 -137.959,-17.048C-137.959,-53.304 -113.466,-87.792 -68.979,-87.792C-27.435,-87.792 0,-59.377 0,-34.685" style="fill:rgb(0,69,136);fill-rule:nonzero;"/>
    </g>
    <g transform="matrix(4.166667,0,0,4.166667,2421.055,475.21375)">
        <path d="M0,-87.793C0,-86.028 -1.178,-84.853 -2.938,-84.853L-102.491,-84.853L-102.491,-58.201L-6.271,-58.201C-4.507,-58.201 -3.329,-57.022 -3.329,-55.262L-3.329,-32.726C-3.329,-30.962 -4.507,-29.786 -6.271,-29.786L-102.491,-29.786L-102.491,-2.939L-2.548,-2.939C-0.781,-2.939 0.393,-1.762 0.393,0.001L0.393,21.752C0.393,23.519 -0.781,24.691 -2.548,24.691L-134.041,24.691C-135.804,24.691 -136.98,23.519 -136.98,21.752L-136.98,-109.544C-136.98,-111.307 -135.804,-112.484 -134.041,-112.484L-2.938,-112.484C-1.178,-112.484 0,-111.307 0,-109.544L0,-87.793Z" style="fill:rgb(0,69,136);fill-rule:nonzero;"/>
    </g>
    <g transform="matrix(4.166667,0,0,4.166667,1439.984167,133.904583)">
        <path d="M0,23.713L96.217,23.713C97.982,23.713 99.159,24.892 99.159,26.652L99.159,-2.939L0,-2.939L0,23.713Z" style="fill:rgb(0,69,136);fill-rule:nonzero;"/>
    </g>
    <g transform="matrix(4.166667,0,0,4.166667,1840.8875,450.719583)">
        <path d="M0,-23.907L-96.217,-23.907L-96.217,2.94L2.942,2.94L2.942,-26.847C2.942,-25.084 1.766,-23.907 0,-23.907" style="fill:rgb(0,69,136);fill-rule:nonzero;"/>
    </g>
    <g transform="matrix(4.166667,0,0,4.166667,1298.0775,20.002917)">
        <path d="M0,131.297C0,133.061 -1.179,134.238 -2.938,134.238L-31.748,134.238C-33.51,134.238 -34.688,133.061 -34.688,131.297L-34.688,78.974L-105.234,78.974L-105.234,131.297C-105.234,133.061 -106.412,134.238 -108.174,134.238L-136.59,134.238C-138.352,134.238 -139.528,133.061 -139.528,131.297L-139.528,0.002C-139.528,-1.763 -138.352,-2.941 -136.59,-2.941L-108.174,-2.941C-106.412,-2.941 -105.234,-1.763 -105.234,0.002L-105.234,51.54L-34.688,51.54L-34.688,0.002C-34.688,-1.763 -33.51,-2.941 -31.748,-2.941L-2.938,-2.941C-1.179,-2.941 0,-1.763 0,0.002L0,131.297Z" style="fill:rgb(0,69,136);fill-rule:nonzero;"/>
    </g>
    <g transform="matrix(0,-4.166667,-4.166667,0,305.402083,773.120833)">
        <path d="M-5.41,-5.411C-8.398,-5.411 -10.819,-2.988 -10.819,0C-10.819,2.987 -8.398,5.41 -5.41,5.41C-2.425,5.41 -0.002,2.987 -0.002,0C-0.002,-2.988 -2.425,-5.411 -5.41,-5.411" style="fill:rgb(0,69,136);fill-rule:nonzero;"/>
    </g>
    <g transform="matrix(0,-4.166667,-4.166667,0,2114.441667,773.11875)">
        <path d="M-5.41,-5.412C-8.399,-5.412 -10.82,-2.989 -10.82,0C-10.82,2.985 -8.399,5.41 -5.41,5.41C-2.425,5.41 -0.002,2.985 -0.002,0C-0.002,-2.989 -2.425,-5.412 -5.41,-5.412" style="fill:rgb(0,69,136);fill-rule:nonzero;"/>
    </g>
</svg>
