<?xml version="1.0" encoding="UTF-8" standalone="no"?><!DOCTYPE svg PUBLIC "-//W3C//DTD SVG 1.1//EN" "http://www.w3.org/Graphics/SVG/1.1/DTD/svg11.dtd"><svg width="100%" height="100%" viewBox="0 0 2423 832" version="1.1" xmlns="http://www.w3.org/2000/svg" xmlns:xlink="http://www.w3.org/1999/xlink" xml:space="preserve" xmlns:serif="http://www.serif.com/" style="fill-rule:evenodd;clip-rule:evenodd;stroke-linejoin:round;stroke-miterlimit:2;"><g><path d="M434.233,796.285c0,10.354 7.325,19.075 18.317,19.075c10.488,0 18.446,-9.096 18.446,-19.075c0,-8.217 -5.688,-19.204 -17.308,-19.204c-11.117,0 -19.454,8.717 -19.454,19.204m36.633,-26.025l0,-5.433c0,-1.138 0.763,-1.896 1.896,-1.896l14.779,0c1.138,0 1.9,0.758 1.9,1.896l0,63.163c0,1.142 -0.763,1.892 -1.9,1.892l-14.779,0c-1.133,0 -1.896,-0.75 -1.896,-1.892l0,-8.588c-3.408,6.571 -11.367,11.746 -23.242,11.746c-20.846,0 -32.342,-17.054 -32.342,-34.863c0,-17.308 10.738,-34.488 34.233,-34.488c10.742,0 17.942,3.913 21.35,8.463" style="fill:#fff;fill-rule:nonzero;"/></g><g><path d="M588.861,768.49c1.008,0.504 1.388,1.646 0.758,2.779l-6.063,10.488c-0.508,0.754 -1.517,1.138 -2.404,0.754c-8.463,-3.663 -14.4,-5.558 -20.842,-5.558c-6.442,0 -9.729,2.025 -9.729,4.804l0,0.125c0,3.917 8.971,5.433 18.95,7.833c13.013,3.408 23.496,9.475 23.496,19.579c0,15.413 -10.738,21.854 -31.075,21.854c-12.379,0 -18.696,-2.779 -29.942,-9.346c-1.008,-0.629 -1.388,-1.896 -0.629,-2.904l5.938,-8.213c0.629,-0.758 1.642,-0.883 2.4,-0.504c9.346,5.054 16.167,7.071 24.633,7.071c7.579,0 10.992,-2.146 10.992,-5.304l0,-0.129c0,-5.304 -10.613,-8.083 -20.846,-10.358c-13.013,-2.904 -21.475,-7.575 -21.475,-19.958l0,-0.379c0,-9.729 8.967,-19.325 27.792,-19.325c11.117,0 18.825,2.271 28.046,6.692" style="fill:#fff;fill-rule:nonzero;"/></g><g><path d="M644.955,791.232l34.363,0c0,-7.833 -7.075,-14.15 -18.192,-14.15c-9.096,0 -16.171,8.208 -16.171,14.15m49.775,3.913c0,3.158 -0.125,6.192 -0.888,7.583c-0.375,0.504 -0.883,0.754 -1.388,0.754l-47.246,0c0,6.067 9.346,13.392 16.929,13.392c5.683,0 11.367,0.379 20.842,-7.325c1.013,-0.758 1.646,-0.508 2.4,0.129l5.938,5.558c0.883,0.883 0.758,1.892 0.129,2.904c-6.446,9.221 -16.046,13.008 -29.688,13.008c-22.238,0 -34.617,-17.683 -34.617,-34.233l0,-0.379c0,-18.571 11.117,-34.733 33.858,-34.733c22.358,0 33.729,13.763 33.729,33.342" style="fill:#fff;fill-rule:nonzero;"/></g><g><path d="M789.099,768.49c1.013,0.504 1.388,1.646 0.758,2.779l-6.063,10.488c-0.508,0.754 -1.517,1.138 -2.404,0.754c-8.463,-3.663 -14.4,-5.558 -20.842,-5.558c-6.442,0 -9.729,2.025 -9.729,4.804l0,0.125c0,3.917 8.971,5.433 18.95,7.833c13.013,3.408 23.496,9.475 23.496,19.579c0,15.413 -10.738,21.854 -31.075,21.854c-12.379,0 -18.696,-2.779 -29.942,-9.346c-1.008,-0.629 -1.388,-1.896 -0.629,-2.904l5.933,-8.213c0.633,-0.758 1.646,-0.883 2.404,-0.504c9.346,5.054 16.167,7.071 24.633,7.071c7.579,0 10.992,-2.146 10.992,-5.304l0,-0.129c0,-5.304 -10.613,-8.083 -20.846,-10.358c-13.013,-2.904 -21.475,-7.575 -21.475,-19.958l0,-0.379c0,-9.729 8.967,-19.325 27.792,-19.325c11.117,0 18.825,2.271 28.046,6.692" style="fill:#fff;fill-rule:nonzero;"/></g><g><path d="M879.049,796.79c0,-10.358 -8.463,-18.825 -18.696,-18.825c-10.358,0 -18.825,8.467 -18.825,18.825c0,10.233 8.467,18.696 18.825,18.696c10.233,0 18.696,-8.463 18.696,-18.696m-52.933,-0.125c0,-19.458 14.908,-34.867 34.492,-34.867c19.454,0 34.108,15.283 34.108,34.738c0,19.583 -14.654,34.488 -34.108,34.488c-19.583,0 -34.492,-14.779 -34.492,-34.358" style="fill:#fff;fill-rule:nonzero;"/></g><g><path d="M982.137,777.205c0,1.138 -0.629,1.896 -1.388,1.896c-30.067,0 -27.163,20.971 -27.163,28.804l0,20.083c0,1.142 -0.758,1.9 -1.896,1.9l-15.158,0c-1.138,0 -1.896,-0.758 -1.896,-1.9l0,-63.163c0,-1.138 0.758,-1.896 1.896,-1.896l15.158,0c1.138,0 1.896,0.758 1.896,1.896l0,14.4c6.571,-12.758 20.592,-16.171 26.275,-17.05c1.263,-0.254 2.275,0.629 2.275,2.021l0,13.008Z" style="fill:#fff;fill-rule:nonzero;"/></g><g><path d="M1143.339,791.232l34.363,0c0,-7.833 -7.075,-14.15 -18.192,-14.15c-9.096,0 -16.171,8.208 -16.171,14.15m49.775,3.913c0,3.158 -0.125,6.192 -0.888,7.583c-0.375,0.504 -0.883,0.754 -1.388,0.754l-47.246,0c0,6.067 9.346,13.392 16.929,13.392c5.683,0 11.367,0.379 20.842,-7.325c1.013,-0.758 1.646,-0.508 2.4,0.129l5.938,5.558c0.883,0.883 0.758,1.892 0.129,2.904c-6.446,9.221 -16.046,13.008 -29.688,13.008c-22.238,0 -34.617,-17.683 -34.617,-34.233l0,-0.379c0,-18.571 11.117,-34.733 33.858,-34.733c22.358,0 33.729,13.763 33.729,33.342" style="fill:#fff;fill-rule:nonzero;"/></g><g><path d="M1250.723,796.916c0,10.358 8.463,18.825 18.95,18.825c10.354,0 18.817,-8.467 18.817,-18.825c0,-10.488 -8.463,-18.95 -18.817,-18.95c-10.488,0 -18.95,8.463 -18.95,18.95m56.596,31.075c0,1.138 -0.758,1.896 -1.896,1.896l-14.779,0c-1.138,0 -1.896,-0.758 -1.896,-1.896l0,-8.463c-3.408,4.296 -11.375,11.621 -23.246,11.621c-41.183,0 -45.604,-69.354 1.896,-69.354c10.738,0 17.942,4.804 21.35,8.592l0,-31.204c0,-1.138 0.758,-1.896 1.896,-1.896l14.779,0c1.138,0 1.896,0.758 1.896,1.896l0,88.808Z" style="fill:#fff;fill-rule:nonzero;"/></g><g><path d="M1366.445,762.932c1.129,0 1.892,0.758 1.892,1.896c0.125,13.642 0.125,30.95 0.125,30.95c0,13.263 5.433,20.846 17.183,20.846c8.592,0 14.15,-6.063 17.558,-12l0,-39.796c0,-1.138 0.763,-1.896 1.896,-1.896l14.779,0c1.142,0 1.896,0.758 1.896,1.896l0,63.163c0,1.142 -0.754,1.896 -1.896,1.896l-14.779,0c-1.133,0 -1.896,-0.754 -1.896,-1.896l0,-9.221c-4.167,5.054 -12.25,12.379 -28.042,12.379c-19.838,0 -25.396,-14.904 -25.396,-33.35l0,-32.971c0,-1.138 0.763,-1.896 1.896,-1.896l14.783,0Z" style="fill:#fff;fill-rule:nonzero;"/></g><g><path d="M1527.895,771.647c0.758,0.763 0.758,2.021 0,2.779l-9.854,9.729c-0.758,0.758 -1.771,0.758 -2.654,0c-4.421,-3.788 -9.979,-5.813 -16.8,-5.813c-22.358,0 -26.404,36.383 0.883,36.383c6.446,0 12.129,-2.021 17.054,-5.813c0.758,-0.629 1.767,-0.629 2.4,0l9.35,8.592c0.883,0.758 0.883,2.021 0,2.779c-6.825,6.317 -14.783,10.738 -28.3,10.738c-21.729,0 -37.775,-15.408 -37.775,-34.233l0,-0.379c0,-18.696 15.921,-34.488 38.158,-34.488c12.754,0 20.967,3.663 27.538,9.725" style="fill:#fff;fill-rule:nonzero;"/></g><g><path d="M1579.694,796.285c0,10.354 7.329,19.075 18.317,19.075c10.488,0 18.446,-9.096 18.446,-19.075c0,-8.217 -5.683,-19.204 -17.304,-19.204c-11.117,0 -19.458,8.717 -19.458,19.204m36.638,-26.025l0,-5.433c0,-1.138 0.758,-1.896 1.896,-1.896l14.779,0c1.138,0 1.896,0.758 1.896,1.896l0,63.163c0,1.142 -0.758,1.892 -1.896,1.892l-14.779,0c-1.138,0 -1.896,-0.75 -1.896,-1.892l0,-8.588c-3.408,6.571 -11.371,11.746 -23.246,11.746c-20.842,0 -32.342,-17.054 -32.342,-34.863c0,-17.308 10.738,-34.488 34.238,-34.488c10.738,0 17.942,3.913 21.35,8.463" style="fill:#fff;fill-rule:nonzero;"/></g><g><path d="M1725.356,761.67c1.133,0 1.896,0.758 1.896,1.892l0,12.129c0,1.138 -0.763,1.896 -1.896,1.896l-19.2,0l0,30.192c0,5.054 3.408,7.329 9.217,7.329c3.921,0 7.708,-0.758 10.488,-2.783c0.758,-0.629 1.771,-0.629 2.533,0l6.817,6.7c-0.25,-0.254 -5.942,12.254 -25.9,12c-9.217,-0.129 -12.883,-2.4 -15.158,-3.917c-4.8,-3.538 -6.946,-10.108 -6.946,-17.563l0,-31.958l-8.717,0c-1.138,0 -1.896,-0.758 -1.896,-1.896l0,-12.129c0,-1.133 0.758,-1.892 1.896,-1.892l8.717,0l0,-22.363c0,-1.138 0.754,-1.892 1.896,-1.892l15.408,0c1.142,0 1.896,0.754 1.896,1.892l0,22.363l18.95,0Z" style="fill:#fff;fill-rule:nonzero;"/></g><g><path d="M1793.199,827.991c0,1.138 -0.763,1.896 -1.896,1.896l-15.163,0c-1.133,0 -1.892,-0.758 -1.892,-1.896l-0.25,-63.163c0,-1.142 0.754,-1.896 1.892,-1.896l15.413,0c1.133,0 1.896,0.754 1.896,1.896l0,63.163Zm0.629,-74.029c0,1.138 -0.754,1.896 -1.896,1.896l-16.8,0c-1.133,0 -1.896,-0.758 -1.896,-1.896l0,-13.138c0,-1.133 0.763,-1.896 1.896,-1.896l16.8,0c1.142,0 1.896,0.763 1.896,1.896l0,13.138Z" style="fill:#fff;fill-rule:nonzero;"/></g><g><path d="M1878.343,828.752c-0.254,0.758 -0.888,1.129 -1.517,1.129l-21.1,0c-0.754,0 -1.388,-0.371 -1.638,-1.129l-22.742,-62.917c-0.504,-1.513 0.379,-2.904 2.021,-2.904l15.288,0c0.883,0 1.513,0.504 1.767,1.267l15.917,50.15l15.042,-50.15c0.246,-0.763 0.875,-1.267 1.633,-1.267l15.667,0c1.771,0 2.654,1.517 2.146,3.033l-22.483,62.788Z" style="fill:#fff;fill-rule:nonzero;"/></g><g><path d="M1985.602,796.79c0,-10.358 -8.463,-18.825 -18.696,-18.825c-10.367,0 -18.825,8.467 -18.825,18.825c0,10.233 8.458,18.696 18.825,18.696c10.233,0 18.696,-8.463 18.696,-18.696m-52.933,-0.125c0,-19.458 14.908,-34.867 34.488,-34.867c19.454,0 34.108,15.283 34.108,34.738c0,19.583 -14.654,34.488 -34.108,34.488c-19.579,0 -34.488,-14.779 -34.488,-34.358" style="fill:#fff;fill-rule:nonzero;"/></g><g><path d="M574.829,221.279c0,8.154 -4.088,14.708 -13.075,14.708l-104.513,0c-4.896,0 -10.621,-1.646 -10.621,-6.554c0,-22.858 -29.375,-101.238 -159.204,-101.238c-90.629,0 -154.333,78.379 -154.333,171.475c0,85.733 62.058,167.388 154.333,167.388c143.704,0 161.675,-97.175 161.675,-113.508c0,-6.525 5.704,-11.417 12.242,-11.417l103.7,0c7.338,0 13.063,5.704 12.242,13.046c-3.263,52.271 -34.288,231.9 -289.054,231.9c-174.721,0 -288.221,-122.479 -288.221,-292.313c0,-151.067 102.054,-294.767 287.417,-294.767c173.1,0 287.413,118.396 287.413,221.279" style="fill:#fff;fill-rule:nonzero;"/></g><g><path d="M2421.055,109.41c0,7.354 -4.908,12.25 -12.242,12.25l-414.804,0l0,111.05l400.917,0c7.35,0 12.258,4.913 12.258,12.246l0,93.9c0,7.35 -4.908,12.25 -12.258,12.25l-400.917,0l0,111.863l416.429,0c7.363,0 12.254,4.904 12.254,12.25l0,90.629c0,7.363 -4.892,12.246 -12.254,12.246l-547.888,0c-7.346,0 -12.246,-4.883 -12.246,-12.246l0,-547.067c0,-7.346 4.9,-12.25 12.246,-12.25l546.263,0c7.333,0 12.242,4.904 12.242,12.25l0,90.629Z" style="fill:#fff;fill-rule:nonzero;"/></g><g><path d="M1439.984,232.709l400.904,0c7.354,0 12.258,4.913 12.258,12.246l0,-123.296l-413.163,0l0,111.05Z" style="fill:#fff;fill-rule:nonzero;"/></g><g><path d="M1840.888,351.107l-400.904,0l0,111.863l413.163,0l0,-124.113c0,7.346 -4.9,12.25 -12.258,12.25" style="fill:#fff;fill-rule:nonzero;"/></g><g><path d="M1298.078,567.074c0,7.35 -4.913,12.254 -12.242,12.254l-120.042,0c-7.342,0 -12.25,-4.904 -12.25,-12.254l0,-218.013l-293.942,0l0,218.013c0,7.35 -4.908,12.254 -12.25,12.254l-118.4,0c-7.342,0 -12.242,-4.904 -12.242,-12.254l0,-547.063c0,-7.354 4.9,-12.263 12.242,-12.263l118.4,0c7.342,0 12.25,4.908 12.25,12.263l0,214.742l293.942,0l0,-214.742c0,-7.354 4.908,-12.263 12.25,-12.263l120.042,0c7.329,0 12.242,4.908 12.242,12.263l0,547.063Z" style="fill:#fff;fill-rule:nonzero;"/></g><g><path d="M327.948,795.663c0,12.45 -10.096,22.538 -22.546,22.538c-12.446,0 -22.542,-10.088 -22.542,-22.538c0,-12.438 10.096,-22.533 22.542,-22.533c12.45,0 22.546,10.096 22.546,22.533" style="fill:#fff;fill-rule:nonzero;"/></g><g><path d="M2136.992,795.66c0,12.454 -10.096,22.542 -22.55,22.542c-12.438,0 -22.542,-10.088 -22.542,-22.542c0,-12.438 10.104,-22.533 22.542,-22.533c12.454,0 22.55,10.096 22.55,22.533" style="fill:#fff;fill-rule:nonzero;"/></g></svg>